<svg xmlns="http://www.w3.org/2000/svg" viewBox="0 0 180 180" width="180" height="180">
  <rect width="180" height="180" fill="#16a34a" rx="22.5"/>
  <g transform="translate(45, 45)">
    <path d="M45 11.25c-12.384 0-22.5 10.08-22.5 22.5v56.25c0 12.384 10.08 22.5 22.5 22.5s22.5-10.08 22.5-22.5V33.75c0-12.384-10.08-22.5-22.5-22.5zM33.75 33.75c0-6.192 5.04-11.25 11.25-11.25s11.25 5.04 11.25 11.25v56.25c0 6.192-5.04 11.25-11.25 11.25s-11.25-5.04-11.25-11.25V33.75z" fill="#ffffff"/>
    <path d="M45 0c-6.192 0-11.25 5.04-11.25 11.25v22.5h22.5V11.25c0-6.192-5.04-11.25-11.25-11.25z" fill="#ffffff"/>
    <circle cx="33.75" cy="78.75" r="5.625" fill="#ffffff"/>
    <circle cx="56.25" cy="78.75" r="5.625" fill="#ffffff"/>
  </g>
</svg>