<svg xmlns="http://www.w3.org/2000/svg" viewBox="0 0 192 192" width="192" height="192">
  <rect width="192" height="192" fill="#16a34a" rx="24"/>
  <g transform="translate(48, 48)">
    <path d="M48 12c-13.2096 0-24 10.752-24 24v60c0 13.2096 10.752 24 24 24s24-10.752 24-24V36c0-13.2096-10.752-24-24-24zM36 36c0-6.6048 5.376-12 12-12s12 5.376 12 12v60c0 6.6048-5.376 12-12 12s-12-5.376-12-12V36z" fill="#ffffff"/>
    <path d="M48 0c-6.6048 0-12 5.376-12 12v24h24V12c0-6.6048-5.376-12-12-12z" fill="#ffffff"/>
    <circle cx="36" cy="84" r="6" fill="#ffffff"/>
    <circle cx="60" cy="84" r="6" fill="#ffffff"/>
  </g>
</svg>