<svg xmlns="http://www.w3.org/2000/svg" viewBox="0 0 512 512" width="512" height="512">
  <rect width="512" height="512" fill="#16a34a" rx="64"/>
  <g transform="translate(128, 128)">
    <path d="M128 32c-35.2256 0-64 28.672-64 64v160c0 35.2256 28.672 64 64 64s64-28.672 64-64V96c0-35.2256-28.672-64-64-64zM96 96c0-17.6128 14.336-32 32-32s32 14.336 32 32v160c0 17.6128-14.336 32-32 32s-32-14.336-32-32V96z" fill="#ffffff"/>
    <path d="M128 0c-17.6128 0-32 14.336-32 32v64h64V32c0-17.6128-14.336-32-32-32z" fill="#ffffff"/>
    <circle cx="96" cy="224" r="16" fill="#ffffff"/>
    <circle cx="160" cy="224" r="16" fill="#ffffff"/>
  </g>
</svg>