<svg xmlns="http://www.w3.org/2000/svg" viewBox="0 0 64 64" width="64" height="64">
  <rect width="64" height="64" fill="#16a34a" rx="8"/>
  <g transform="translate(16, 16)">
    <path d="M16 4c-4.4032 0-8 3.584-8 8v20c0 4.4032 3.584 8 8 8s8-3.584 8-8V12c0-4.4032-3.584-8-8-8zM12 12c0-2.2016 1.792-4 4-4s4 1.792 4 4v20c0 2.2016-1.792 4-4 4s-4-1.792-4-4V12z" fill="#ffffff"/>
    <path d="M16 0c-2.2016 0-4 1.792-4 4v8h8V4c0-2.2016-1.792-4-4-4z" fill="#ffffff"/>
    <circle cx="12" cy="28" r="2" fill="#ffffff"/>
    <circle cx="20" cy="28" r="2" fill="#ffffff"/>
  </g>
</svg>